<svg xmlns="http://www.w3.org/2000/svg" xmlns:xlink="http://www.w3.org/1999/xlink" width="500" zoomAndPan="magnify" viewBox="0 0 375 374.999991" height="500" preserveAspectRatio="xMidYMid meet" version="1.0"><defs><g/></defs><path fill="#000000" d="M 104.214844 183.421875 C 132.222656 180.46875 127.519531 136.96875 104.953125 125.117188 C 90 117.265625 69.816406 117.609375 56.308594 122.902344 C 30.679688 132.945312 23.875 145.78125 20.191406 170.878906 C 16.507812 195.972656 28.855469 262.347656 58.519531 269.777344 C 85.050781 276.421875 95.289062 263.539062 92.421875 251.328125 C 89.472656 238.78125 74.941406 222.527344 73.996094 211.472656 C 71.785156 185.640625 104.214844 183.425781 104.214844 183.425781 Z M 104.214844 183.421875 " fill-opacity="1" fill-rule="nonzero"/><path fill="#000000" d="M 154.125 122.171875 C 146.621094 133.085938 132.382812 136.308594 122.328125 129.371094 C 112.269531 122.4375 110.195312 107.972656 117.699219 97.058594 C 125.203125 86.148438 139.4375 82.925781 149.496094 89.859375 C 159.554688 96.792969 161.625 111.261719 154.125 122.171875 Z M 154.125 122.171875 " fill-opacity="1" fill-rule="nonzero"/><path fill="#000000" d="M 96.285156 115.300781 C 89.863281 116.398438 83.800781 112.234375 82.738281 106.007812 C 81.679688 99.777344 85.777344 90.417969 92.199219 89.324219 C 98.621094 88.226562 104.683594 92.390625 105.742188 98.617188 C 106.800781 104.84375 102.703125 114.207031 96.285156 115.300781 Z M 96.285156 115.300781 " fill-opacity="1" fill-rule="nonzero"/><path fill="#000000" d="M 75.464844 110.804688 C 71.828125 115.96875 66.5 116.960938 61.175781 113.203125 C 55.855469 109.445312 54.601562 98.730469 58.238281 93.566406 C 61.875 88.402344 67.199219 87.410156 72.523438 91.167969 C 77.847656 94.921875 79.097656 105.640625 75.464844 110.804688 Z M 75.464844 110.804688 " fill-opacity="1" fill-rule="nonzero"/><path fill="#000000" d="M 53.226562 114.683594 C 52.109375 120.070312 46.519531 123.464844 40.742188 122.265625 C 34.960938 121.0625 30.265625 112.890625 31.378906 107.503906 C 32.496094 102.117188 38.085938 98.722656 43.867188 99.921875 C 49.644531 101.125 54.34375 109.296875 53.226562 114.683594 Z M 53.226562 114.683594 " fill-opacity="1" fill-rule="nonzero"/><path fill="#000000" d="M 29.75 122.398438 C 33.039062 127.308594 32.414062 133.496094 28.355469 136.21875 C 24.296875 138.945312 18.34375 137.171875 15.058594 132.261719 C 11.769531 127.355469 12.394531 121.167969 16.453125 118.441406 C 20.511719 115.71875 26.464844 117.492188 29.75 122.398438 Z M 29.75 122.398438 " fill-opacity="1" fill-rule="nonzero"/><g fill="#000000" fill-opacity="1"><g transform="translate(93.984079, 236.530604)"><g><path d="M 10.84375 -30.46875 C 12.09375 -30.46875 13.078125 -30.332031 13.796875 -30.0625 C 14.515625 -29.789062 15.253906 -29.40625 16.015625 -28.90625 C 16.640625 -28.507812 17.117188 -28.3125 17.453125 -28.3125 C 17.710938 -28.3125 17.910156 -28.457031 18.046875 -28.75 C 18.191406 -29.050781 18.304688 -29.523438 18.390625 -30.171875 L 19.359375 -30.171875 C 19.222656 -28.535156 19.15625 -25.65625 19.15625 -21.53125 L 18.171875 -21.53125 C 18.003906 -23.8125 17.347656 -25.734375 16.203125 -27.296875 C 15.066406 -28.867188 13.410156 -29.65625 11.234375 -29.65625 C 9.703125 -29.65625 8.457031 -29.195312 7.5 -28.28125 C 6.539062 -27.363281 6.0625 -26.1875 6.0625 -24.75 C 6.0625 -23.675781 6.304688 -22.742188 6.796875 -21.953125 C 7.296875 -21.160156 7.925781 -20.476562 8.6875 -19.90625 C 9.445312 -19.34375 10.535156 -18.625 11.953125 -17.75 L 13.171875 -17 C 14.953125 -15.894531 16.359375 -14.925781 17.390625 -14.09375 C 18.421875 -13.257812 19.25 -12.304688 19.875 -11.234375 C 20.5 -10.160156 20.8125 -8.898438 20.8125 -7.453125 C 20.8125 -4.890625 19.960938 -2.90625 18.265625 -1.5 C 16.566406 -0.101562 14.421875 0.59375 11.828125 0.59375 C 10.460938 0.59375 9.347656 0.453125 8.484375 0.171875 C 7.628906 -0.109375 6.804688 -0.488281 6.015625 -0.96875 C 5.390625 -1.363281 4.910156 -1.5625 4.578125 -1.5625 C 4.316406 -1.5625 4.113281 -1.410156 3.96875 -1.109375 C 3.832031 -0.816406 3.722656 -0.347656 3.640625 0.296875 L 2.671875 0.296875 C 2.785156 -1.253906 2.84375 -4.644531 2.84375 -9.875 L 3.8125 -9.875 C 4.007812 -7.019531 4.710938 -4.703125 5.921875 -2.921875 C 7.140625 -1.140625 9.007812 -0.25 11.53125 -0.25 C 13.050781 -0.25 14.347656 -0.722656 15.421875 -1.671875 C 16.492188 -2.617188 17.03125 -4.023438 17.03125 -5.890625 C 17.03125 -7.472656 16.5 -8.8125 15.4375 -9.90625 C 14.382812 -11.007812 12.710938 -12.253906 10.421875 -13.640625 C 8.753906 -14.660156 7.40625 -15.566406 6.375 -16.359375 C 5.34375 -17.148438 4.5 -18.101562 3.84375 -19.21875 C 3.195312 -20.332031 2.875 -21.640625 2.875 -23.140625 C 2.875 -25.515625 3.632812 -27.328125 5.15625 -28.578125 C 6.6875 -29.835938 8.582031 -30.46875 10.84375 -30.46875 Z M 10.84375 -30.46875 "/></g></g></g><g fill="#000000" fill-opacity="1"><g transform="translate(116.866562, 236.530604)"><g><path d="M 15.46875 -22.421875 C 17.445312 -22.421875 18.941406 -21.882812 19.953125 -20.8125 C 20.492188 -20.238281 20.875 -19.53125 21.09375 -18.6875 C 21.320312 -17.84375 21.4375 -16.695312 21.4375 -15.25 L 21.4375 -3.9375 C 21.4375 -2.78125 21.675781 -1.984375 22.15625 -1.546875 C 22.632812 -1.109375 23.46875 -0.890625 24.65625 -0.890625 L 24.65625 0 C 22.0625 -0.113281 20.367188 -0.171875 19.578125 -0.171875 C 18.785156 -0.171875 17.203125 -0.113281 14.828125 0 L 14.828125 -0.890625 C 15.878906 -0.890625 16.609375 -1.109375 17.015625 -1.546875 C 17.421875 -1.984375 17.625 -2.78125 17.625 -3.9375 L 17.625 -16.1875 C 17.625 -17.769531 17.394531 -18.976562 16.9375 -19.8125 C 16.488281 -20.644531 15.578125 -21.0625 14.203125 -21.0625 C 13.035156 -21.0625 12 -20.722656 11.09375 -20.046875 C 10.195312 -19.367188 9.5 -18.441406 9 -17.265625 C 8.507812 -16.097656 8.265625 -14.789062 8.265625 -13.34375 L 8.265625 -3.9375 C 8.265625 -2.78125 8.46875 -1.984375 8.875 -1.546875 C 9.28125 -1.109375 10.007812 -0.890625 11.0625 -0.890625 L 11.0625 0 C 8.6875 -0.113281 7.101562 -0.171875 6.3125 -0.171875 C 5.519531 -0.171875 3.828125 -0.113281 1.234375 0 L 1.234375 -0.890625 C 2.421875 -0.890625 3.253906 -1.109375 3.734375 -1.546875 C 4.210938 -1.984375 4.453125 -2.78125 4.453125 -3.9375 L 4.453125 -17.203125 C 4.453125 -18.503906 4.210938 -19.453125 3.734375 -20.046875 C 3.253906 -20.640625 2.421875 -20.9375 1.234375 -20.9375 L 1.234375 -21.828125 C 2.128906 -21.742188 3.003906 -21.703125 3.859375 -21.703125 C 5.640625 -21.703125 7.109375 -21.898438 8.265625 -22.296875 L 8.265625 -17.28125 C 8.972656 -19.09375 9.953125 -20.398438 11.203125 -21.203125 C 12.460938 -22.015625 13.882812 -22.421875 15.46875 -22.421875 Z M 15.46875 -22.421875 "/></g></g></g><g fill="#000000" fill-opacity="1"><g transform="translate(142.164412, 236.530604)"><g><path d="M 19.625 -5.078125 C 19.113281 -3.523438 18.15625 -2.191406 16.75 -1.078125 C 15.351562 0.0351562 13.671875 0.59375 11.703125 0.59375 C 9.691406 0.59375 7.953125 0.132812 6.484375 -0.78125 C 5.015625 -1.695312 3.890625 -2.984375 3.109375 -4.640625 C 2.335938 -6.296875 1.953125 -8.207031 1.953125 -10.375 C 1.953125 -12.832031 2.347656 -14.96875 3.140625 -16.78125 C 3.929688 -18.59375 5.046875 -19.984375 6.484375 -20.953125 C 7.921875 -21.929688 9.601562 -22.421875 11.53125 -22.421875 C 14.070312 -22.421875 16.023438 -21.648438 17.390625 -20.109375 C 18.765625 -18.566406 19.453125 -16.226562 19.453125 -13.09375 L 6.1875 -13.09375 C 6.101562 -12.300781 6.0625 -11.394531 6.0625 -10.375 C 6.0625 -8.507812 6.363281 -6.882812 6.96875 -5.5 C 7.570312 -4.125 8.375 -3.0625 9.375 -2.3125 C 10.382812 -1.5625 11.441406 -1.1875 12.546875 -1.1875 C 13.898438 -1.1875 15.097656 -1.507812 16.140625 -2.15625 C 17.191406 -2.8125 18.066406 -3.898438 18.765625 -5.421875 Z M 11.359375 -21.609375 C 10.023438 -21.609375 8.878906 -20.957031 7.921875 -19.65625 C 6.960938 -18.363281 6.367188 -16.445312 6.140625 -13.90625 L 15.375 -13.90625 C 15.4375 -16.101562 15.117188 -17.9375 14.421875 -19.40625 C 13.734375 -20.875 12.710938 -21.609375 11.359375 -21.609375 Z M 11.359375 -21.609375 "/></g></g></g><g fill="#000000" fill-opacity="1"><g transform="translate(163.606141, 236.530604)"><g><path d="M 6.90625 0.296875 C 5.125 0.296875 3.800781 -0.144531 2.9375 -1.03125 C 2.082031 -1.925781 1.65625 -3.164062 1.65625 -4.75 C 1.65625 -6.019531 2 -7.0625 2.6875 -7.875 C 3.382812 -8.695312 4.203125 -9.347656 5.140625 -9.828125 C 6.085938 -10.304688 7.34375 -10.816406 8.90625 -11.359375 C 10.476562 -11.890625 11.644531 -12.378906 12.40625 -12.828125 C 13.175781 -13.285156 13.5625 -13.894531 13.5625 -14.65625 L 13.5625 -17.28125 C 13.5625 -18.925781 13.210938 -20.050781 12.515625 -20.65625 C 11.828125 -21.257812 10.863281 -21.5625 9.625 -21.5625 C 7.644531 -21.5625 6.242188 -21.054688 5.421875 -20.046875 C 5.984375 -19.898438 6.457031 -19.597656 6.84375 -19.140625 C 7.226562 -18.691406 7.421875 -18.128906 7.421875 -17.453125 C 7.421875 -16.753906 7.191406 -16.195312 6.734375 -15.78125 C 6.285156 -15.375 5.707031 -15.171875 5 -15.171875 C 4.207031 -15.171875 3.613281 -15.414062 3.21875 -15.90625 C 2.820312 -16.40625 2.625 -17.007812 2.625 -17.71875 C 2.625 -18.394531 2.785156 -18.957031 3.109375 -19.40625 C 3.441406 -19.851562 3.929688 -20.304688 4.578125 -20.765625 C 5.253906 -21.242188 6.113281 -21.640625 7.15625 -21.953125 C 8.207031 -22.265625 9.351562 -22.421875 10.59375 -22.421875 C 12.800781 -22.421875 14.46875 -21.894531 15.59375 -20.84375 C 16.300781 -20.195312 16.773438 -19.414062 17.015625 -18.5 C 17.253906 -17.582031 17.375 -16.375 17.375 -14.875 L 17.375 -3.09375 C 17.375 -2.382812 17.472656 -1.875 17.671875 -1.5625 C 17.867188 -1.257812 18.207031 -1.109375 18.6875 -1.109375 C 19.03125 -1.109375 19.347656 -1.179688 19.640625 -1.328125 C 19.929688 -1.484375 20.25 -1.703125 20.59375 -1.984375 L 21.0625 -1.265625 C 20.320312 -0.703125 19.691406 -0.300781 19.171875 -0.0625 C 18.648438 0.175781 17.992188 0.296875 17.203125 0.296875 C 15.847656 0.296875 14.898438 -0.0390625 14.359375 -0.71875 C 13.828125 -1.394531 13.5625 -2.3125 13.5625 -3.46875 C 12.707031 -2.0625 11.726562 -1.082031 10.625 -0.53125 C 9.53125 0.0195312 8.289062 0.296875 6.90625 0.296875 Z M 8.765625 -1.390625 C 10.628906 -1.390625 12.226562 -2.46875 13.5625 -4.625 L 13.5625 -12.921875 C 13.300781 -12.523438 12.945312 -12.195312 12.5 -11.9375 C 12.050781 -11.6875 11.359375 -11.351562 10.421875 -10.9375 C 9.347656 -10.476562 8.476562 -10.046875 7.8125 -9.640625 C 7.15625 -9.234375 6.582031 -8.675781 6.09375 -7.96875 C 5.613281 -7.257812 5.375 -6.351562 5.375 -5.25 C 5.375 -3.976562 5.6875 -3.015625 6.3125 -2.359375 C 6.9375 -1.710938 7.753906 -1.390625 8.765625 -1.390625 Z M 8.765625 -1.390625 "/></g></g></g><g fill="#000000" fill-opacity="1"><g transform="translate(184.708874, 236.530604)"><g><path d="M 20.046875 -3.09375 C 20.578125 -2.382812 21.054688 -1.859375 21.484375 -1.515625 C 21.910156 -1.179688 22.421875 -0.972656 23.015625 -0.890625 L 23.015625 0 C 21.316406 -0.113281 20.171875 -0.171875 19.578125 -0.171875 C 18.816406 -0.171875 17.25 -0.113281 14.875 0 L 14.875 -0.890625 C 15.269531 -0.890625 15.585938 -0.96875 15.828125 -1.125 C 16.066406 -1.28125 16.1875 -1.46875 16.1875 -1.6875 C 16.1875 -1.914062 16.101562 -2.128906 15.9375 -2.328125 L 11.0625 -9.453125 C 10.582031 -10.160156 10.125 -10.632812 9.6875 -10.875 C 9.25 -11.113281 8.644531 -11.257812 7.875 -11.3125 L 7.875 -3.9375 C 7.875 -2.78125 8.078125 -1.984375 8.484375 -1.546875 C 8.898438 -1.109375 9.628906 -0.890625 10.671875 -0.890625 L 10.671875 0 C 8.304688 -0.113281 6.738281 -0.171875 5.96875 -0.171875 C 5.15625 -0.171875 3.445312 -0.113281 0.84375 0 L 0.84375 -0.890625 C 2.03125 -0.890625 2.863281 -1.109375 3.34375 -1.546875 C 3.820312 -1.984375 4.0625 -2.78125 4.0625 -3.9375 L 4.0625 -28.140625 C 4.0625 -29.441406 3.820312 -30.382812 3.34375 -30.96875 C 2.863281 -31.5625 2.03125 -31.859375 0.84375 -31.859375 L 0.84375 -32.75 C 1.75 -32.664062 2.625 -32.625 3.46875 -32.625 C 5.25 -32.625 6.71875 -32.820312 7.875 -33.21875 L 7.875 -12.203125 C 8.695312 -12.316406 9.382812 -12.503906 9.9375 -12.765625 C 10.488281 -13.035156 11.019531 -13.425781 11.53125 -13.9375 L 14.65625 -17.203125 C 15.5625 -18.140625 16.015625 -18.914062 16.015625 -19.53125 C 16.015625 -20.007812 15.722656 -20.367188 15.140625 -20.609375 C 14.566406 -20.847656 13.8125 -20.96875 12.875 -20.96875 L 12.875 -21.828125 C 14.851562 -21.710938 16.453125 -21.65625 17.671875 -21.65625 C 18.992188 -21.65625 20.222656 -21.710938 21.359375 -21.828125 L 21.359375 -20.96875 C 19.972656 -20.863281 18.703125 -20.203125 17.546875 -18.984375 L 12.375 -13.5625 Z M 20.046875 -3.09375 "/></g></g></g><g fill="#000000" fill-opacity="1"><g transform="translate(208.015108, 236.530604)"><g><path d="M 19.625 -5.078125 C 19.113281 -3.523438 18.15625 -2.191406 16.75 -1.078125 C 15.351562 0.0351562 13.671875 0.59375 11.703125 0.59375 C 9.691406 0.59375 7.953125 0.132812 6.484375 -0.78125 C 5.015625 -1.695312 3.890625 -2.984375 3.109375 -4.640625 C 2.335938 -6.296875 1.953125 -8.207031 1.953125 -10.375 C 1.953125 -12.832031 2.347656 -14.96875 3.140625 -16.78125 C 3.929688 -18.59375 5.046875 -19.984375 6.484375 -20.953125 C 7.921875 -21.929688 9.601562 -22.421875 11.53125 -22.421875 C 14.070312 -22.421875 16.023438 -21.648438 17.390625 -20.109375 C 18.765625 -18.566406 19.453125 -16.226562 19.453125 -13.09375 L 6.1875 -13.09375 C 6.101562 -12.300781 6.0625 -11.394531 6.0625 -10.375 C 6.0625 -8.507812 6.363281 -6.882812 6.96875 -5.5 C 7.570312 -4.125 8.375 -3.0625 9.375 -2.3125 C 10.382812 -1.5625 11.441406 -1.1875 12.546875 -1.1875 C 13.898438 -1.1875 15.097656 -1.507812 16.140625 -2.15625 C 17.191406 -2.8125 18.066406 -3.898438 18.765625 -5.421875 Z M 11.359375 -21.609375 C 10.023438 -21.609375 8.878906 -20.957031 7.921875 -19.65625 C 6.960938 -18.363281 6.367188 -16.445312 6.140625 -13.90625 L 15.375 -13.90625 C 15.4375 -16.101562 15.117188 -17.9375 14.421875 -19.40625 C 13.734375 -20.875 12.710938 -21.609375 11.359375 -21.609375 Z M 11.359375 -21.609375 "/></g></g></g><g fill="#000000" fill-opacity="1"><g transform="translate(229.456838, 236.530604)"><g><path d="M 14.40625 -22.421875 C 15.539062 -22.421875 16.46875 -22.09375 17.1875 -21.4375 C 17.90625 -20.789062 18.265625 -20 18.265625 -19.0625 C 18.265625 -18.332031 18.046875 -17.707031 17.609375 -17.1875 C 17.171875 -16.664062 16.582031 -16.40625 15.84375 -16.40625 C 15.226562 -16.40625 14.703125 -16.597656 14.265625 -16.984375 C 13.828125 -17.378906 13.609375 -17.921875 13.609375 -18.609375 C 13.609375 -19.535156 14.085938 -20.296875 15.046875 -20.890625 C 14.847656 -21.171875 14.550781 -21.3125 14.15625 -21.3125 C 13.050781 -21.3125 12.046875 -20.878906 11.140625 -20.015625 C 10.234375 -19.160156 9.523438 -18.109375 9.015625 -16.859375 C 8.515625 -15.617188 8.265625 -14.445312 8.265625 -13.34375 L 8.265625 -4.359375 C 8.265625 -3.066406 8.640625 -2.164062 9.390625 -1.65625 C 10.140625 -1.144531 11.257812 -0.890625 12.75 -0.890625 L 12.75 0 L 11.734375 -0.046875 C 8.859375 -0.128906 7.023438 -0.171875 6.234375 -0.171875 C 5.492188 -0.171875 3.828125 -0.113281 1.234375 0 L 1.234375 -0.890625 C 2.421875 -0.890625 3.253906 -1.109375 3.734375 -1.546875 C 4.210938 -1.984375 4.453125 -2.78125 4.453125 -3.9375 L 4.453125 -17.203125 C 4.453125 -18.503906 4.210938 -19.453125 3.734375 -20.046875 C 3.253906 -20.640625 2.421875 -20.9375 1.234375 -20.9375 L 1.234375 -21.828125 C 2.128906 -21.742188 3.003906 -21.703125 3.859375 -21.703125 C 5.640625 -21.703125 7.109375 -21.898438 8.265625 -22.296875 L 8.265625 -17 C 8.773438 -18.40625 9.585938 -19.660156 10.703125 -20.765625 C 11.816406 -21.867188 13.050781 -22.421875 14.40625 -22.421875 Z M 14.40625 -22.421875 "/></g></g></g><g fill="#000000" fill-opacity="1"><g transform="translate(248.313702, 236.530604)"><g><path d="M 8.8125 -22.421875 C 9.832031 -22.421875 10.738281 -22.265625 11.53125 -21.953125 C 12.320312 -21.640625 12.957031 -21.269531 13.4375 -20.84375 C 13.75 -20.625 14.003906 -20.515625 14.203125 -20.515625 C 14.703125 -20.515625 15.007812 -21.132812 15.125 -22.375 L 16.109375 -22.375 C 15.992188 -20.988281 15.9375 -18.585938 15.9375 -15.171875 L 14.953125 -15.171875 C 14.648438 -17.035156 14.050781 -18.570312 13.15625 -19.78125 C 12.269531 -21 10.953125 -21.609375 9.203125 -21.609375 C 8.179688 -21.609375 7.34375 -21.316406 6.6875 -20.734375 C 6.039062 -20.160156 5.71875 -19.363281 5.71875 -18.34375 C 5.71875 -17.351562 6.054688 -16.523438 6.734375 -15.859375 C 7.410156 -15.203125 8.5 -14.40625 10 -13.46875 C 10.25 -13.332031 10.628906 -13.09375 11.140625 -12.75 C 12.441406 -11.90625 13.488281 -11.15625 14.28125 -10.5 C 15.070312 -9.851562 15.710938 -9.101562 16.203125 -8.25 C 16.703125 -7.40625 16.953125 -6.4375 16.953125 -5.34375 C 16.953125 -3.476562 16.25 -2.019531 14.84375 -0.96875 C 13.445312 0.0703125 11.734375 0.59375 9.703125 0.59375 C 8.429688 0.59375 7.316406 0.394531 6.359375 0 C 5.734375 -0.3125 5.15625 -0.691406 4.625 -1.140625 C 4.507812 -1.253906 4.378906 -1.3125 4.234375 -1.3125 C 4.035156 -1.3125 3.859375 -1.171875 3.703125 -0.890625 C 3.546875 -0.609375 3.425781 -0.210938 3.34375 0.296875 L 2.375 0.296875 C 2.488281 -1.316406 2.546875 -4.140625 2.546875 -8.171875 L 3.515625 -8.171875 C 3.828125 -5.515625 4.390625 -3.53125 5.203125 -2.21875 C 6.023438 -0.90625 7.425781 -0.25 9.40625 -0.25 C 10.394531 -0.25 11.269531 -0.570312 12.03125 -1.21875 C 12.789062 -1.875 13.171875 -2.894531 13.171875 -4.28125 C 13.171875 -5.382812 12.796875 -6.316406 12.046875 -7.078125 C 11.304688 -7.835938 10.085938 -8.753906 8.390625 -9.828125 C 7.003906 -10.703125 5.9375 -11.421875 5.1875 -11.984375 C 4.4375 -12.554688 3.804688 -13.25 3.296875 -14.0625 C 2.796875 -14.882812 2.546875 -15.847656 2.546875 -16.953125 C 2.546875 -18.734375 3.140625 -20.085938 4.328125 -21.015625 C 5.515625 -21.953125 7.007812 -22.421875 8.8125 -22.421875 Z M 8.8125 -22.421875 "/></g></g></g><g fill="#000000" fill-opacity="1"><g transform="translate(267.255309, 236.530604)"><g/></g></g><g fill="#000000" fill-opacity="1"><g transform="translate(277.806681, 236.530604)"><g><path d="M 10.84375 -30.46875 C 12.09375 -30.46875 13.078125 -30.332031 13.796875 -30.0625 C 14.515625 -29.789062 15.253906 -29.40625 16.015625 -28.90625 C 16.640625 -28.507812 17.117188 -28.3125 17.453125 -28.3125 C 17.710938 -28.3125 17.910156 -28.457031 18.046875 -28.75 C 18.191406 -29.050781 18.304688 -29.523438 18.390625 -30.171875 L 19.359375 -30.171875 C 19.222656 -28.535156 19.15625 -25.65625 19.15625 -21.53125 L 18.171875 -21.53125 C 18.003906 -23.8125 17.347656 -25.734375 16.203125 -27.296875 C 15.066406 -28.867188 13.410156 -29.65625 11.234375 -29.65625 C 9.703125 -29.65625 8.457031 -29.195312 7.5 -28.28125 C 6.539062 -27.363281 6.0625 -26.1875 6.0625 -24.75 C 6.0625 -23.675781 6.304688 -22.742188 6.796875 -21.953125 C 7.296875 -21.160156 7.925781 -20.476562 8.6875 -19.90625 C 9.445312 -19.34375 10.535156 -18.625 11.953125 -17.75 L 13.171875 -17 C 14.953125 -15.894531 16.359375 -14.925781 17.390625 -14.09375 C 18.421875 -13.257812 19.25 -12.304688 19.875 -11.234375 C 20.5 -10.160156 20.8125 -8.898438 20.8125 -7.453125 C 20.8125 -4.890625 19.960938 -2.90625 18.265625 -1.5 C 16.566406 -0.101562 14.421875 0.59375 11.828125 0.59375 C 10.460938 0.59375 9.347656 0.453125 8.484375 0.171875 C 7.628906 -0.109375 6.804688 -0.488281 6.015625 -0.96875 C 5.390625 -1.363281 4.910156 -1.5625 4.578125 -1.5625 C 4.316406 -1.5625 4.113281 -1.410156 3.96875 -1.109375 C 3.832031 -0.816406 3.722656 -0.347656 3.640625 0.296875 L 2.671875 0.296875 C 2.785156 -1.253906 2.84375 -4.644531 2.84375 -9.875 L 3.8125 -9.875 C 4.007812 -7.019531 4.710938 -4.703125 5.921875 -2.921875 C 7.140625 -1.140625 9.007812 -0.25 11.53125 -0.25 C 13.050781 -0.25 14.347656 -0.722656 15.421875 -1.671875 C 16.492188 -2.617188 17.03125 -4.023438 17.03125 -5.890625 C 17.03125 -7.472656 16.5 -8.8125 15.4375 -9.90625 C 14.382812 -11.007812 12.710938 -12.253906 10.421875 -13.640625 C 8.753906 -14.660156 7.40625 -15.566406 6.375 -16.359375 C 5.34375 -17.148438 4.5 -18.101562 3.84375 -19.21875 C 3.195312 -20.332031 2.875 -21.640625 2.875 -23.140625 C 2.875 -25.515625 3.632812 -27.328125 5.15625 -28.578125 C 6.6875 -29.835938 8.582031 -30.46875 10.84375 -30.46875 Z M 10.84375 -30.46875 "/></g></g></g><g fill="#000000" fill-opacity="1"><g transform="translate(300.689175, 236.530604)"><g><path d="M 14.75 -22.421875 C 16.25 -22.421875 17.597656 -22.007812 18.796875 -21.1875 C 19.992188 -20.363281 20.929688 -19.160156 21.609375 -17.578125 C 22.285156 -16.003906 22.625 -14.113281 22.625 -11.90625 C 22.625 -9.726562 22.273438 -7.691406 21.578125 -5.796875 C 20.890625 -3.910156 19.816406 -2.375 18.359375 -1.1875 C 16.910156 0 15.097656 0.59375 12.921875 0.59375 C 11.847656 0.59375 10.875 0.382812 10 -0.03125 C 9.125 -0.457031 8.445312 -1.007812 7.96875 -1.6875 L 7.96875 3.734375 C 7.96875 4.890625 8.304688 5.6875 8.984375 6.125 C 9.660156 6.5625 10.675781 6.78125 12.03125 6.78125 L 12.03125 7.671875 L 11.0625 7.625 C 8.4375 7.539062 6.726562 7.5 5.9375 7.5 C 5.257812 7.5 3.734375 7.554688 1.359375 7.671875 L 1.359375 6.78125 C 2.398438 6.78125 3.125 6.585938 3.53125 6.203125 C 3.945312 5.828125 4.15625 5.144531 4.15625 4.15625 L 4.15625 -17.203125 C 4.15625 -18.503906 3.914062 -19.453125 3.4375 -20.046875 C 2.957031 -20.640625 2.125 -20.9375 0.9375 -20.9375 L 0.9375 -21.828125 C 1.8125 -21.742188 2.6875 -21.703125 3.5625 -21.703125 C 5.34375 -21.703125 6.8125 -21.898438 7.96875 -22.296875 L 7.96875 -17.796875 C 8.59375 -19.265625 9.492188 -20.398438 10.671875 -21.203125 C 11.859375 -22.015625 13.21875 -22.421875 14.75 -22.421875 Z M 12.453125 -0.375 C 16.492188 -0.375 18.515625 -4.019531 18.515625 -11.3125 C 18.515625 -17.863281 16.878906 -21.140625 13.609375 -21.140625 C 12.335938 -21.140625 11.191406 -20.679688 10.171875 -19.765625 C 9.148438 -18.847656 8.414062 -17.53125 7.96875 -15.8125 L 7.96875 -3.09375 C 8.363281 -2.269531 8.941406 -1.609375 9.703125 -1.109375 C 10.460938 -0.617188 11.378906 -0.375 12.453125 -0.375 Z M 12.453125 -0.375 "/></g></g></g><g fill="#000000" fill-opacity="1"><g transform="translate(325.309032, 236.530604)"><g><path d="M 11.609375 -22.421875 C 14.492188 -22.421875 16.816406 -21.46875 18.578125 -19.5625 C 20.347656 -17.65625 21.234375 -14.765625 21.234375 -10.890625 C 21.234375 -7.015625 20.347656 -4.128906 18.578125 -2.234375 C 16.816406 -0.347656 14.492188 0.59375 11.609375 0.59375 C 8.722656 0.59375 6.394531 -0.347656 4.625 -2.234375 C 2.863281 -4.128906 1.984375 -7.015625 1.984375 -10.890625 C 1.984375 -14.765625 2.863281 -17.65625 4.625 -19.5625 C 6.394531 -21.46875 8.722656 -22.421875 11.609375 -22.421875 Z M 11.609375 -21.5625 C 9.910156 -21.5625 8.566406 -20.691406 7.578125 -18.953125 C 6.597656 -17.222656 6.109375 -14.535156 6.109375 -10.890625 C 6.109375 -7.242188 6.597656 -4.554688 7.578125 -2.828125 C 8.566406 -1.109375 9.910156 -0.25 11.609375 -0.25 C 13.304688 -0.25 14.648438 -1.109375 15.640625 -2.828125 C 16.628906 -4.554688 17.125 -7.242188 17.125 -10.890625 C 17.125 -14.535156 16.628906 -17.222656 15.640625 -18.953125 C 14.648438 -20.691406 13.304688 -21.5625 11.609375 -21.5625 Z M 11.609375 -21.5625 "/></g></g></g><g fill="#000000" fill-opacity="1"><g transform="translate(348.530511, 236.530604)"><g><path d="M 8.046875 -21.78125 L 14.328125 -21.78125 L 14.328125 -20.9375 L 8.046875 -20.9375 L 8.046875 -4.53125 C 8.046875 -3.257812 8.28125 -2.34375 8.75 -1.78125 C 9.21875 -1.21875 9.890625 -0.9375 10.765625 -0.9375 C 11.640625 -0.9375 12.382812 -1.285156 13 -1.984375 C 13.625 -2.691406 14.148438 -3.851562 14.578125 -5.46875 L 15.421875 -5.25 C 14.710938 -1.351562 12.878906 0.59375 9.921875 0.59375 C 8.953125 0.59375 8.15625 0.476562 7.53125 0.25 C 6.914062 0.03125 6.367188 -0.320312 5.890625 -0.8125 C 5.265625 -1.425781 4.832031 -2.1875 4.59375 -3.09375 C 4.351562 -4 4.234375 -5.210938 4.234375 -6.734375 L 4.234375 -20.9375 L 0.171875 -20.9375 L 0.171875 -21.78125 L 4.234375 -21.78125 L 4.234375 -28.265625 C 5.816406 -28.316406 7.085938 -28.515625 8.046875 -28.859375 Z M 8.046875 -21.78125 "/></g></g></g></svg>